<svg width="144" height="35" viewBox="0 0 144 35" fill="none" xmlns="http://www.w3.org/2000/svg">
<path d="M5.58722 31.413H1V34C1 34.5523 1.44771 35 2 35H143C143.552 35 144 34.5523 144 34V8.5L138.273 20.3693C137.863 21.218 136.615 21.081 136.399 20.1637L134.737 13.0988C134.586 12.4575 133.867 12.1348 133.288 12.4483L130.428 13.9956C129.987 14.2344 129.436 14.109 129.142 13.7024L126.799 10.4649C126.462 9.99986 125.804 9.91299 125.359 10.2747L117.057 17.0124C116.784 17.234 116.415 17.2959 116.085 17.1755L114.382 16.5553C113.918 16.386 113.399 16.5816 113.162 17.0156L108.868 24.8799C108.476 25.5982 107.434 25.5669 107.085 24.8263L103.62 17.46C103.592 17.3999 103.558 17.3427 103.518 17.2894L99.0741 11.3069C98.7028 10.807 97.9698 10.7644 97.543 11.2179L95.4157 13.4789C95.103 13.8112 94.6051 13.8898 94.2053 13.6698L88.5858 10.5781C88.0259 10.2701 87.3247 10.5591 87.1444 11.1722L85.3798 17.1737C85.3418 17.3029 85.278 17.4232 85.1924 17.5272L82.9601 20.2387C82.592 20.6857 81.9223 20.7277 81.5014 20.33L78.6132 17.6014C78.454 17.451 78.2499 17.357 78.0321 17.3339L75.4877 17.0635C75.1202 17.0244 74.8042 16.7858 74.666 16.443L70.2721 5.54664C69.996 4.86187 69.0985 4.70221 68.6031 5.24973L66.4115 7.67222C65.9133 8.22287 65.01 8.05765 64.7389 7.36632L62.6017 1.91458C62.2972 1.13788 61.2315 1.05354 60.8086 1.77266L56.9252 8.37647C56.7456 8.68197 56.4176 8.86957 56.0632 8.86957H50.1815C49.8664 8.86957 49.5697 9.01809 49.3809 9.27037L47.4389 11.8651C47.0389 12.3995 46.2377 12.3995 45.8377 11.8651L44.7612 10.4267C44.2736 9.77524 43.2535 9.94781 43.0074 10.7234L36.3571 31.6782C36.2624 31.9767 36.0332 32.2136 35.7379 32.3183L31.7686 33.7245C31.317 33.8844 30.8155 33.7017 30.5726 33.2888L27.6383 28.2989C27.3387 27.7894 26.665 27.6496 26.1873 27.9977L18.9141 33.2984C18.4118 33.6645 17.7007 33.4884 17.4271 32.9303L15.8394 29.6903C15.7987 29.6073 15.7468 29.5304 15.685 29.4616L11.1254 24.392C10.6496 23.863 9.78923 23.986 9.48076 24.6271L6.48834 30.8466C6.32174 31.1929 5.97147 31.413 5.58722 31.413Z" fill="url(#paint0_linear_1_820)"/>
<path d="M1 31.413H5.58722C5.97147 31.413 6.32174 31.1929 6.48834 30.8466L9.48076 24.6271C9.78923 23.986 10.6496 23.863 11.1254 24.392L15.685 29.4616C15.7468 29.5304 15.7987 29.6073 15.8394 29.6903L17.4271 32.9303C17.7007 33.4884 18.4118 33.6645 18.9141 33.2984L26.1873 27.9977C26.665 27.6496 27.3387 27.7894 27.6383 28.2989L30.5726 33.2888C30.8155 33.7017 31.317 33.8844 31.7686 33.7245L35.7379 32.3183C36.0332 32.2136 36.2624 31.9767 36.3571 31.6782L43.0074 10.7234C43.2535 9.94781 44.2736 9.77524 44.7612 10.4267L45.8377 11.8651C46.2377 12.3995 47.0389 12.3995 47.4389 11.8651L49.3809 9.27037C49.5697 9.01809 49.8664 8.86957 50.1815 8.86957H56.0632C56.4176 8.86957 56.7456 8.68197 56.9252 8.37647L60.8086 1.77266C61.2315 1.05354 62.2972 1.13788 62.6017 1.91458L64.7389 7.36632C65.01 8.05765 65.9133 8.22287 66.4115 7.67222L68.6031 5.24973C69.0985 4.70221 69.996 4.86187 70.2721 5.54664L74.666 16.443C74.8042 16.7858 75.1202 17.0244 75.4877 17.0635L78.0321 17.3339C78.2499 17.357 78.454 17.451 78.6132 17.6014L81.5014 20.33C81.9223 20.7277 82.592 20.6857 82.9601 20.2387L85.1924 17.5272C85.278 17.4232 85.3418 17.3029 85.3798 17.1737L87.1444 11.1722C87.3247 10.5591 88.0259 10.2701 88.5858 10.5781L94.2053 13.6698C94.6051 13.8898 95.103 13.8112 95.4157 13.4789L97.543 11.2179C97.9698 10.7644 98.7028 10.807 99.0741 11.3069L103.518 17.2894C103.558 17.3427 103.592 17.3999 103.62 17.46L107.085 24.8263C107.434 25.5669 108.476 25.5982 108.868 24.8799L113.162 17.0156C113.399 16.5816 113.918 16.386 114.382 16.5553L116.085 17.1755C116.415 17.2959 116.784 17.234 117.057 17.0124L125.359 10.2747C125.804 9.91299 126.462 9.99986 126.799 10.4649L129.142 13.7024C129.436 14.109 129.987 14.2344 130.428 13.9956L133.288 12.4483C133.867 12.1348 134.586 12.4575 134.737 13.0988L136.345 19.9337C136.566 20.875 137.862 20.9851 138.239 20.0946L143.149 8.5" stroke="#638FFE" stroke-linecap="round"/>
<defs>
<linearGradient id="paint0_linear_1_820" x1="72.5" y1="0" x2="72.5" y2="35" gradientUnits="userSpaceOnUse">
<stop stop-color="#0011FD" stop-opacity="0.5"/>
<stop offset="1" stop-color="#F0F1FF" stop-opacity="0"/>
</linearGradient>
</defs>
</svg>
