<svg width="144" height="35" viewBox="0 0 144 35" fill="none" xmlns="http://www.w3.org/2000/svg">
<path d="M4.75966 31.8953L1 29.8571V34C1 34.5523 1.44772 35 2 35H143C143.552 35 144 34.5523 144 34V18.0714L141.744 22.4744C141.641 22.676 141.472 22.8365 141.266 22.9297L138.151 24.3367C137.647 24.5647 137.053 24.3392 136.827 23.8336L133.636 16.6989C133.475 16.3389 133.118 16.1071 132.723 16.1071H130.178C129.772 16.1071 129.406 15.8619 129.252 15.4864L127.654 11.5863C127.385 10.9303 126.537 10.7547 126.03 11.2499L124.967 12.2871C124.78 12.4694 124.53 12.5714 124.269 12.5714H117.26C117.056 12.5714 116.856 12.5087 116.688 12.3918L114.396 10.7942C113.939 10.4752 113.309 10.5923 112.996 11.0543L109.281 16.5475C108.837 17.2042 107.841 17.1076 107.532 16.3776L103.565 7.0229C103.471 6.80086 103.3 6.62033 103.083 6.51457L98.8603 4.45435C98.6826 4.36768 98.4833 4.3356 98.2875 4.36214L93.332 5.03375C92.9946 5.07949 92.6571 4.95035 92.4363 4.69106L89.1966 0.885732C88.7999 0.419679 88.0813 0.41623 87.68 0.878453L83.4475 5.75436C83.033 6.23191 82.2848 6.20961 81.8995 5.70822L81.0469 4.59893C80.6393 4.06854 79.8359 4.08021 79.4438 4.62222L76.3106 8.95363C75.8839 9.5435 74.99 9.49429 74.6306 8.86114L70.5518 1.67455C70.152 0.97014 69.1244 1.0084 68.7781 1.74059L65.041 9.64185C64.8757 9.99138 64.5237 10.2143 64.137 10.2143H62.0068C61.6279 10.2143 61.2815 10.4284 61.1122 10.7674L55.2045 22.5928C55.141 22.72 55.0511 22.8321 54.9408 22.9218L47.9689 28.5912C47.62 28.8749 47.1246 28.8909 46.7582 28.6302L43.889 26.5886C43.6507 26.419 43.3502 26.3623 43.0665 26.4333L37.8317 27.7431C37.4647 27.8349 37.181 28.1259 37.0985 28.495L36.4417 31.4325C36.3395 31.8894 35.934 32.2143 35.4658 32.2143H31.3717C31.1037 32.2143 30.8468 32.1067 30.6588 31.9156L25.8342 27.0114C25.4558 26.6268 24.8404 26.6117 24.4437 26.9774L18.5025 32.4528C18.1561 32.7721 17.6339 32.8062 17.2488 32.5348L11.2814 28.3293C10.9152 28.0712 10.422 28.0882 10.0744 28.3708L5.86717 31.7921C5.55297 32.0476 5.11569 32.0884 4.75966 31.8953Z" fill="url(#paint0_linear_1_794)"/>
<path d="M1 29.8571L4.75966 31.8953C5.11569 32.0884 5.55297 32.0476 5.86717 31.7921L10.0744 28.3708C10.422 28.0882 10.9152 28.0712 11.2814 28.3293L17.2488 32.5348C17.6338 32.8062 18.1561 32.7721 18.5025 32.4528L24.4437 26.9774C24.8404 26.6117 25.4558 26.6268 25.8342 27.0114L30.6588 31.9156C30.8468 32.1067 31.1037 32.2143 31.3717 32.2143H35.4658C35.934 32.2143 36.3395 31.8894 36.4417 31.4325L37.0985 28.495C37.181 28.1259 37.4647 27.8349 37.8317 27.7431L43.0665 26.4333C43.3502 26.3623 43.6507 26.419 43.889 26.5886L46.7582 28.6302C47.1246 28.8909 47.62 28.8749 47.9689 28.5912L54.9408 22.9218C55.0511 22.8321 55.141 22.72 55.2045 22.5928L61.1122 10.7674C61.2815 10.4284 61.6279 10.2143 62.0068 10.2143H64.137C64.5237 10.2143 64.8757 9.99138 65.041 9.64185L68.7781 1.74059C69.1244 1.0084 70.152 0.97014 70.5518 1.67455L74.6306 8.86114C74.99 9.49429 75.8839 9.5435 76.3106 8.95363L79.4438 4.62222C79.8359 4.08021 80.6392 4.06854 81.0469 4.59893L81.8995 5.70822C82.2848 6.20961 83.033 6.23191 83.4475 5.75436L87.68 0.878453C88.0813 0.41623 88.7999 0.419679 89.1966 0.885732L92.4363 4.69106C92.6571 4.95035 92.9946 5.07949 93.332 5.03375L98.2875 4.36214C98.4833 4.33559 98.6826 4.36768 98.8603 4.45435L103.083 6.51457C103.3 6.62033 103.471 6.80086 103.565 7.0229L107.532 16.3776C107.841 17.1076 108.837 17.2042 109.281 16.5475L112.996 11.0543C113.309 10.5923 113.939 10.4752 114.396 10.7942L116.688 12.3918C116.856 12.5087 117.056 12.5714 117.26 12.5714H124.269C124.53 12.5714 124.78 12.4694 124.967 12.2871L126.03 11.2499C126.537 10.7547 127.385 10.9303 127.654 11.5863L129.252 15.4864C129.406 15.8619 129.772 16.1071 130.178 16.1071H132.723C133.118 16.1071 133.475 16.3389 133.636 16.6989L136.827 23.8336C137.053 24.3392 137.647 24.5647 138.151 24.3367L141.183 22.9672C141.439 22.8516 141.634 22.6336 141.721 22.3666L143.149 18" stroke="#30E0A1" stroke-linecap="round"/>
<defs>
<linearGradient id="paint0_linear_1_794" x1="72.5" y1="0" x2="72.5" y2="35" gradientUnits="userSpaceOnUse">
<stop stop-color="#00FFAA" stop-opacity="0.5"/>
<stop offset="1" stop-color="#ECFBF6" stop-opacity="0"/>
</linearGradient>
</defs>
</svg>
