<svg width="145" height="37" viewBox="0 0 145 37" fill="none" xmlns="http://www.w3.org/2000/svg">
<path d="M4.38596 30.1323L1 27.6386V36C1 36.5523 1.44772 37 2 37H143C143.552 37 144 36.5523 144 36V5.77108L138.478 9.64267C138.068 9.93009 137.508 9.87001 137.169 9.50208L132.032 3.93656C131.731 3.61002 131.25 3.52152 130.852 3.71933L129.79 4.24745C129.395 4.44387 128.917 4.35812 128.615 4.03641L126.297 1.56681C125.984 1.23339 125.485 1.15478 125.085 1.37589L123.073 2.4868C122.95 2.55507 122.813 2.59639 122.672 2.60805L113.888 3.33585C113.519 3.36642 113.197 3.59839 113.052 3.93875L108.797 13.8743C108.472 14.6314 107.423 14.6939 107.011 13.9805L103.02 7.06634C102.842 6.7569 102.511 6.56627 102.154 6.56627H98.2201C97.7676 6.56627 97.3715 6.87014 97.2543 7.30721L95.7323 12.9819C95.6151 13.419 95.2189 13.7229 94.7664 13.7229H92.3528C92.2348 13.7229 92.1179 13.702 92.0072 13.6613L88.6307 12.4179C88.1808 12.2523 87.6767 12.4292 87.429 12.8396L83.1772 19.8853C82.8613 20.4087 82.1538 20.5287 81.683 20.1386L80.5502 19.2001C80.0942 18.8222 79.4115 18.9213 79.0816 19.4132L78.0929 20.8878C77.7066 21.4638 76.8656 21.4814 76.4557 20.9219L70.1068 12.2578C69.6651 11.6551 68.7425 11.7321 68.4068 12.3996L67.0723 15.0532C66.8756 15.4444 66.4473 15.6621 66.0154 15.5905L62.6454 15.0321C62.2249 14.9624 61.8065 15.1668 61.6031 15.5413L57.8879 22.3819C57.7238 22.6841 57.4159 22.8807 57.0727 22.9026L51.8441 23.2359C51.5532 23.2544 51.2849 23.3989 51.1094 23.6316L47.6019 28.2814C47.1447 28.8875 46.2055 28.7831 45.8925 28.0915L44.2701 24.5069C43.9916 23.8915 43.1956 23.7236 42.6922 24.174L32.6461 33.1636C32.1675 33.5918 31.4151 33.4644 31.1043 32.9024L27.239 25.915C26.8737 25.2547 25.9366 25.2214 25.5254 25.8541L23.2707 29.3236C23.1435 29.5194 22.9518 29.6644 22.7289 29.7337L20.0784 30.5572C19.5966 30.7069 19.0787 30.4742 18.8707 30.0146L16.6217 25.0455C16.4597 24.6877 16.1034 24.4578 15.7106 24.4578H13.9554C13.6526 24.4578 13.3661 24.3206 13.1763 24.0847L11.5482 22.0613C11.0981 21.5019 10.2226 21.585 9.8859 22.2192L5.86216 29.7961C5.57585 30.3352 4.87749 30.4943 4.38596 30.1323Z" fill="url(#paint0_linear_1_809)"/>
<path d="M1 27.6386L4.38596 30.1323C4.87749 30.4943 5.57585 30.3352 5.86216 29.7961L9.8859 22.2192C10.2226 21.585 11.0981 21.5019 11.5482 22.0613L13.1763 24.0847C13.3661 24.3206 13.6526 24.4578 13.9554 24.4578H15.7106C16.1034 24.4578 16.4597 24.6877 16.6217 25.0455L18.8707 30.0146C19.0787 30.4742 19.5966 30.7069 20.0784 30.5572L22.7289 29.7337C22.9518 29.6644 23.1435 29.5194 23.2707 29.3236L25.5254 25.8541C25.9366 25.2214 26.8737 25.2547 27.239 25.915L31.1043 32.9024C31.4151 33.4644 32.1675 33.5918 32.6461 33.1636L42.6922 24.174C43.1956 23.7236 43.9916 23.8915 44.2701 24.5069L45.8925 28.0915C46.2055 28.7831 47.1447 28.8875 47.6019 28.2814L51.1094 23.6316C51.2849 23.3989 51.5532 23.2544 51.8441 23.2359L57.0727 22.9026C57.4159 22.8807 57.7238 22.6841 57.8879 22.3819L61.6031 15.5413C61.8065 15.1668 62.2249 14.9624 62.6454 15.0321L66.0154 15.5905C66.4474 15.6621 66.8756 15.4444 67.0723 15.0532L68.4068 12.3996C68.7425 11.7321 69.6651 11.6551 70.1068 12.2578L76.4557 20.9219C76.8656 21.4814 77.7067 21.4638 78.0929 20.8878L79.0816 19.4132C79.4115 18.9213 80.0942 18.8222 80.5502 19.2001L81.683 20.1386C82.1538 20.5287 82.8613 20.4087 83.1772 19.8853L87.429 12.8396C87.6767 12.4292 88.1808 12.2523 88.6307 12.4179L92.0072 13.6613C92.1179 13.702 92.2348 13.7229 92.3528 13.7229H94.7664C95.2189 13.7229 95.6151 13.419 95.7323 12.9819L97.2543 7.30721C97.3715 6.87014 97.7676 6.56627 98.2201 6.56627H102.154C102.511 6.56627 102.842 6.7569 103.02 7.06634L107.011 13.9805C107.423 14.6939 108.472 14.6314 108.797 13.8743L113.052 3.93875C113.197 3.59839 113.519 3.36642 113.888 3.33585L122.672 2.60805C122.813 2.59639 122.95 2.55507 123.073 2.4868L125.085 1.37589C125.485 1.15478 125.984 1.23339 126.297 1.56681L128.615 4.03641C128.917 4.35812 129.395 4.44387 129.79 4.24745L130.852 3.71933C131.25 3.52152 131.731 3.61002 132.032 3.93656L137.169 9.50208C137.508 9.87001 138.068 9.93009 138.478 9.64267L144 5.77108" stroke="#6374C3" stroke-linecap="round"/>
<defs>
<linearGradient id="paint0_linear_1_809" x1="72.5" y1="1" x2="72.5" y2="37" gradientUnits="userSpaceOnUse">
<stop stop-color="#0022F0" stop-opacity="0.5"/>
<stop offset="1" stop-color="#F1F2F8" stop-opacity="0"/>
</linearGradient>
</defs>
</svg>
