<svg width="144" height="38" viewBox="0 0 144 38" fill="none" xmlns="http://www.w3.org/2000/svg">
<path d="M5.37589 32.3846H0V37C0 37.5523 0.447711 38 0.999996 38H143C143.552 38 144 37.5523 144 37V2.49451L138.384 6.63679C137.88 7.00833 137.163 6.831 136.89 6.26755L134.615 1.56446C134.448 1.21928 134.098 1 133.714 1H126.273C126.094 1 125.919 1.0478 125.765 1.13842L120.653 4.1503C120.423 4.28615 120.147 4.32391 119.888 4.25513L114.041 2.70011C113.589 2.57991 113.114 2.78904 112.898 3.2036L108.538 11.5531C108.255 12.095 107.556 12.2584 107.062 11.8981L102.59 8.63628C102.173 8.33181 101.592 8.39541 101.251 8.78301L101.014 9.0517C100.729 9.37509 100.269 9.47947 99.8722 9.31069L97.6527 8.36626C97.2738 8.20502 96.8348 8.29255 96.5467 8.58678L92.9881 12.2209C92.7656 12.4482 92.4482 12.556 92.1332 12.5114L88.0766 11.936C87.6518 11.8757 87.2359 12.0931 87.043 12.4763L82.3072 21.8805C82.1743 22.1444 81.9316 22.3359 81.6441 22.4039L74.7528 24.033C74.4073 24.1147 74.0445 24.0071 73.7994 23.7504L69.2406 18.9753C68.8357 18.5513 68.1547 18.5648 67.7671 19.0047L66.0723 20.9277C65.9303 21.0888 65.7402 21.2 65.5302 21.2446L61.0163 22.205C60.7417 22.2634 60.5044 22.4345 60.3622 22.6766L57.7511 27.1208C57.5998 27.3783 57.3414 27.5547 57.0465 27.6018L50.7401 28.6081C50.5746 28.6345 50.4183 28.7021 50.2857 28.8047L46.2251 31.9463C45.8864 32.2084 45.4183 32.2256 45.0612 31.9892L42.1375 30.054C41.8676 29.8753 41.5279 29.8384 41.2259 29.9548L31.1022 33.8572C30.8643 33.9489 30.6002 33.9462 30.3641 33.8497L27.1666 32.5425C26.9195 32.4415 26.6423 32.4434 26.3966 32.548L23.4559 33.7993C23.3321 33.852 23.1989 33.8791 23.0644 33.8791H16.515C16.3375 33.8791 16.1632 33.8319 16.01 33.7422L9.79085 30.1035C9.44446 29.9009 9.01047 29.9249 8.68859 30.1646L5.97314 32.1867C5.80054 32.3152 5.59108 32.3846 5.37589 32.3846Z" fill="url(#paint0_linear_1_784)"/>
<path d="M0.856934 32.3846H5.37572C5.59092 32.3846 5.80037 32.3152 5.97297 32.1867L8.68843 30.1646C9.01031 29.9249 9.4443 29.9008 9.79068 30.1035L16.0098 33.7422C16.163 33.8319 16.3373 33.8791 16.5148 33.8791H23.0642C23.1988 33.8791 23.3319 33.852 23.4558 33.7993L26.2854 32.5952C26.5944 32.4637 26.9488 32.4961 27.2289 32.6815L30.2599 34.6878C30.5526 34.8815 30.9253 34.9077 31.2421 34.7567L41.1966 30.0126C41.5134 29.8616 41.8861 29.8877 42.1788 30.0814L45.0611 31.9892C45.4182 32.2256 45.8862 32.2084 46.2249 31.9463L50.2856 28.8047C50.4182 28.7021 50.5744 28.6345 50.7399 28.6081L57.0463 27.6018C57.3412 27.5547 57.5997 27.3783 57.7509 27.1208L60.362 22.6766C60.5042 22.4345 60.7416 22.2634 61.0161 22.205L65.53 21.2446C65.7401 21.2 65.9302 21.0888 66.0721 20.9277L67.7669 19.0047C68.1545 18.5648 68.8356 18.5513 69.2404 18.9753L73.7993 23.7504C74.0444 24.0071 74.4072 24.1147 74.7526 24.033L81.6439 22.4039C81.9314 22.3359 82.1741 22.1444 82.307 21.8805L87.0428 12.4763C87.2358 12.0931 87.6516 11.8757 88.0764 11.936L92.133 12.5114C92.448 12.556 92.7654 12.4482 92.988 12.2209L96.5465 8.58678C96.8346 8.29255 97.2736 8.20502 97.6525 8.36626L99.872 9.31069C100.269 9.47947 100.729 9.37509 101.014 9.0517L101.251 8.78301C101.592 8.39541 102.173 8.33181 102.59 8.63628L107.062 11.8981C107.556 12.2584 108.254 12.095 108.537 11.5531L112.898 3.20361C113.114 2.78904 113.589 2.57991 114.041 2.70011L119.888 4.25513C120.147 4.32391 120.422 4.28615 120.653 4.1503L125.765 1.13842C125.919 1.0478 126.094 1 126.272 1H133.714C134.098 1 134.447 1.21928 134.614 1.56446L136.852 6.18956C137.137 6.77804 137.9 6.93954 138.399 6.51674L143.143 2.49451" stroke="#F6543E" stroke-linecap="round"/>
<defs>
<linearGradient id="paint0_linear_1_784" x1="72" y1="1" x2="72" y2="38" gradientUnits="userSpaceOnUse">
<stop stop-color="#FEF0EE"/>
<stop stop-color="#FEF0EE"/>
<stop stop-color="#FEF0EE" stop-opacity="0.5"/>
<stop offset="0.0001" stop-color="#FF2000" stop-opacity="0.5"/>
<stop offset="1" stop-color="#FF9384" stop-opacity="0"/>
</linearGradient>
</defs>
</svg>
